<svg width="73" height="82" viewBox="0 0 73 82" fill="none" xmlns="http://www.w3.org/2000/svg"><g style="mix-blend-mode:luminosity"><path d="M72.061 23.802c0-1.355-.288-2.576-.888-3.597-.577-1.021-1.443-1.865-2.597-2.53-9.59-5.528-19.203-11.056-28.794-16.584-2.597-1.487-5.083-1.443-7.659.067C28.305 3.4 9.17 14.367 3.485 17.674 1.132 19.03 0 21.115 0 23.824v33.389c0 1.332.289 2.508.844 3.53.577 1.043 1.465 1.93 2.641 2.619 5.706 3.308 24.82 14.252 28.638 16.517 2.576 1.51 5.084 1.576 7.66.066 9.59-5.55 19.202-11.055 28.793-16.583 1.199-.688 2.064-1.554 2.642-2.62.555-1.02.843-2.197.843-3.53v-33.41z" fill="#C656C0"/><path d="M36.121 40.385L.801 60.72c.577 1.044 1.465 1.932 2.642 2.62 5.705 3.308 24.82 14.252 28.638 16.517 2.575 1.51 5.083 1.576 7.659.066 9.59-5.55 19.203-11.055 28.793-16.583 1.199-.688 2.065-1.554 2.642-2.62L36.12 40.385z" fill="#8F2EA9"/><path d="M25.664 46.401c2.065 3.597 5.927 6.016 10.345 6.016 4.462 0 8.347-2.442 10.39-6.082l-10.279-5.95-10.456 6.016z" fill="#8F2EA9"/><path d="M72.059 23.802c0-1.355-.289-2.576-.888-3.597l-35.054 20.18L71.215 60.72c.555-1.021.844-2.198.844-3.53V23.802z" fill="#A934B6"/><path d="M46.398 46.335c-2.042 3.618-5.927 6.082-10.39 6.082-4.44 0-8.302-2.42-10.345-6.016a11.91 11.91 0 0110.345-17.827c4.396 0 8.237 2.398 10.301 5.95l10.412-5.994c-4.151-7.148-11.877-11.966-20.735-11.966-13.23 0-23.931 10.723-23.931 23.932 0 4.329 1.154 8.414 3.174 11.921 4.13 7.171 11.9 12.01 20.78 12.01 8.902 0 16.672-4.861 20.8-12.076L46.4 46.335zm13.162-11.5h-2.375v11.477h2.376V34.835zm5.263 0h-2.376v11.477h2.376V34.835z" fill="#fff"/><path d="M66.755 36.766H55.277v2.376h11.478v-2.376zm0 5.239H55.277v2.376h11.478v-2.376z" fill="#fff"/></g></svg>