<svg width="61" height="59" viewBox="0 0 61 59" fill="none" xmlns="http://www.w3.org/2000/svg"><path fill-rule="evenodd" clip-rule="evenodd" d="M27.21 38.792v-2h2.61v2h-2.61z" fill="#498CD8"/><path fill-rule="evenodd" clip-rule="evenodd" d="M8.57 16.842C8.933 7.596 16.233.082 25.33.082c8.17 0 14.93 6.05 16.466 14.013a10.822 10.822 0 012.1-.191c6.547 0 11.74 5.57 11.74 12.285v.027c0 .134 0 .276-.002.424 2.738.568 4.734 3.086 4.734 6.017 0 3.363-2.59 6.135-5.914 6.135h-17.96v-2h17.96c2.137 0 3.914-1.793 3.914-4.135 0-2.29-1.732-4.087-3.817-4.136l-1.118-.027.151-1.108c.05-.366.052-.742.052-1.197 0-5.71-4.394-10.285-9.74-10.285-.95 0-1.804.117-2.583.388l-1.164.405-.157-1.222C39.02 7.883 32.798 2.082 25.33 2.082c-8.141 0-14.775 6.926-14.775 15.485v1.015l-.882.104C5.407 19.194 2 22.994 2 27.712c0 5.07 3.901 9.081 8.647 9.081h10.254v2H10.647C4.715 38.792 0 33.801 0 27.712c0-5.369 3.675-9.858 8.57-10.87z" fill="#498CD8"/><path fill-rule="evenodd" clip-rule="evenodd" d="M43.29 20.092c-.568 0-1.1.107-1.736.288l-.411-1.442c.697-.2 1.38-.346 2.147-.346 4.397 0 7.849 3.736 7.849 8.231v.018c0 .247 0 .623-.075 1.01l-1.473-.281c.046-.237.047-.486.047-.747 0-3.747-2.858-6.731-6.348-6.731zM25.94 6.207c-6.23 0-11.385 5.339-11.385 11.93v.127h-1.5v-.127c0-7.357 5.765-13.43 12.884-13.43v1.5zM10.663 22.878c-2.617.273-4.667 2.646-4.667 5.467h-1.5c0-3.519 2.562-6.599 6.011-6.96l.156 1.493zm13.392-6.821l5.88 6.144-1.445 1.382-4.434-4.634-4.435 4.634-1.445-1.382 5.88-6.144z" fill="#498CD8"/><path fill-rule="evenodd" clip-rule="evenodd" d="M23.055 38.997V18.01h2v20.986h-2zM38.91 52.88l-5.88 6.073-5.815-6.077 1.445-1.383 4.378 4.576 4.435-4.58 1.437 1.392z" fill="#498CD8"/><path fill-rule="evenodd" clip-rule="evenodd" d="M34.035 36.523v20.543h-2V36.523h2z" fill="#498CD8"/></svg>