<svg width="45" height="53" viewBox="0 0 45 53" fill="none" xmlns="http://www.w3.org/2000/svg"><path d="M38.146 52.529v-19.72c3.17-3.313 5.133-7.888 5.133-12.884 0-10.096-7.85-18.3-17.513-18.3-9.662 0-17.462 8.204-17.462 18.248v.841l-2.466 4.417-3.17 5.837h4.076v7.205c0 2.734 2.114 4.943 4.73 4.943h7.448v9.465" stroke="#498CD8" stroke-width="2"/><path d="M33 18.867c0 4.315-3.37 7.837-7.5 7.837S18 23.182 18 18.867c0-4.316 3.37-7.838 7.5-7.838 4.13.05 7.5 3.522 7.5 7.838zM25.406 5.805v2.763m-6.25-.955l1.347 2.413m-5.863 2.411l2.31 1.407M13 19.019h2.644M14.73 25.5l2.31-1.356m2.358 6.13l1.3-2.413m4.95 4.069v-2.763m6.246.956l-1.347-2.362m5.875-2.462l-2.309-1.358M38 18.768h-2.645m.918-6.533l-2.261 1.407m-2.358-6.129l-1.299 2.362" stroke="#498CD8" stroke-width="1.5" stroke-linejoin="round"/></svg>