<svg width="117" height="42" viewBox="0 0 117 42" fill="none" xmlns="http://www.w3.org/2000/svg"><g style="mix-blend-mode:luminosity" fill="#FF5454"><path d="M50.102 34.442s5.16-.443 5.16-7.107c0-6.664-6.252-7.283-6.252-7.283H37.746v21.024h5.662v-5.072l4.895 5.072h8.374l-6.575-6.634zm-2.183-4.305h-4.511V25.33h4.54s1.269.472 1.269 2.389c0 1.916-1.298 2.418-1.298 2.418zm21.32-9.938h-5.75c-4.099 0-5.485 3.715-5.485 5.485v15.392h5.75V37.39h5.397v3.686h5.573V25.684c0-4.482-4.07-5.485-5.485-5.485zm-.088 11.235h-5.426v-5.102s0-1.15 1.799-1.15h1.975c1.593 0 1.622 1.15 1.622 1.15v5.102h.03zm8.197-11.235h5.986v20.877h-5.986V20.2zm14.39 15.481V20.2h-5.956v20.876h14.006V35.68h-8.05zm10.026.06v5.336h9.643c1.975 0 5.366-1.444 5.484-5.484v-2.064c0-3.45-2.831-5.485-5.484-5.485H106.6v-2.477h9.525v-5.367h-9.142c-2.359 0-5.514 1.946-5.514 5.573v1.858c0 3.627 3.126 5.485 5.514 5.485 6.635.03-1.592 0 4.542 0v2.595l-9.761.03z"/><path d="M2.064 41.047H25.36S20.907 20.73 35.65 12.503c3.215-1.563 13.447-7.402 30.196 4.983.531-.442 1.032-.796 1.032-.796S51.545 1.386 34.471 3.096c-8.58.767-19.137 8.581-25.33 18.902-6.192 10.32-7.077 19.049-7.077 19.049zm48.537-36.3l.118-1.975c-.265-.148-1.003-.501-2.86-1.032l-.118 1.946c.973.324 1.916.678 2.86 1.062zM47.8 11l-.118 1.858c.973.03 1.946.147 2.919.354l.118-1.829a20.888 20.888 0 00-2.92-.383zM36.89 1.8h.294l-.59-1.8c-.914 0-1.857.059-2.83.177l.56 1.74c.855-.089 1.71-.118 2.565-.118zm1.415 10.851l.678 2.035a18.58 18.58 0 012.565-1.032l-.648-1.946a21.278 21.278 0 00-2.595.943zM24.917 4.895L23.59 2.86c-.737.384-1.504.796-2.3 1.268l1.357 2.064c.766-.471 1.504-.914 2.27-1.297zm6.045 13.27l1.416 2.123c.5-.738 1.09-1.416 1.74-2.094l-1.328-2.005a16.306 16.306 0 00-1.828 1.976zm-4.276 9.495l2.389 1.887c.118-1.15.324-2.3.62-3.45l-2.124-1.681c-.383 1.09-.649 2.182-.885 3.244zM13.771 13.653l-2.094-1.828a51.1 51.1 0 00-2.182 2.211l2.27 1.946a29.874 29.874 0 012.006-2.33zm-8.906 13.18l-3.39-1.238C.914 26.863.294 28.338 0 29.134l3.391 1.238c.383-1.002 1.003-2.447 1.474-3.538zm21.38 8.316c.058 1.563.206 2.831.353 3.716l3.539 1.268a38.97 38.97 0 01-.708-3.834l-3.185-1.15z"/></g></svg>