<svg fill="none" height="558" viewBox="0 0 676 558" width="676" xmlns="http://www.w3.org/2000/svg" xmlns:xlink="http://www.w3.org/1999/xlink"><linearGradient id="a" gradientUnits="userSpaceOnUse" x1="557.347" x2="512.469" y1="519.379" y2="487.58"><stop offset="0" stop-color="#2fb4f9"/><stop offset="1" stop-color="#23d4dd"/></linearGradient><path d="m119.743 157.367c27.509-16.286 42.204-50.581 49.507-79.8981 2.447-9.8156 4.821-20.2879 11.823-29.006 8.563-10.6599 21.75-15.5967 32.919-16.5006 20.351-1.6234 37.559 7.868 44.803 24.7251 6.255 14.5591 5.319 33.6567 12.054 47.8676 11.251 23.778 41.3 28.963 70.403 27.799 20.572-.806 44.05-3.265 55.062 11.046 7.752 10.06 7.176 26.51 2.592 42.308-2.214 7.627-5.332 15.587-4.822 22.565.306 4.149 1.891 7.66 3.774 10.85 17.193 29.094 58.56 34.397 73.751 65.069 10.263 20.712 6.63 50.296-4.236 78.219-10.867 27.923-28.359 54.684-46.262 80.669-12.732 18.474-26.994 37.896-45.694 48.483-19.782 11.198-40.805 9.734-54.726.274-13.921-9.459-21.707-25.765-26.601-43.238-6.118-21.836-8.745-46.969-24.146-61.151-10.49-9.66-25.754-13.045-39.818-17.846-23.484-8.011-44.283-20.349-64.766-32.915-19.61-12.03-39.181-24.431-54.231-41.702-10.646-12.226-15.2407-28.34-24.0323-41.903-5.7309-8.841-14.6005-14.292-18.976-24.345-5.3882-12.383-6.1835-30.376 6.759-45.709 12.3199-14.581 30.2673-17.019 44.8633-25.661z" fill="#e3f6ff"/><path d="m600.565 375.449c-25.483 8.253-39.588 35.175-31.505 60.132s35.293 38.499 60.776 30.246c25.482-8.253 39.588-35.176 31.505-60.133s-35.293-38.498-60.776-30.245z" fill="#e3f6ff"/><path d="m519.259 501.857c-13.398 4.339-20.81 18.505-16.556 31.641 4.254 13.135 18.564 20.266 31.962 15.926 13.398-4.339 20.811-18.505 16.557-31.64-4.254-13.136-18.564-20.266-31.963-15.927z" fill="url(#a)" opacity=".1"/></svg>