<svg width="87" height="55" viewBox="0 0 87 55" fill="none" xmlns="http://www.w3.org/2000/svg"><path d="M10.742 47.584V4.157c0-1.329 1.03-2.325 2.218-2.325h60.91c1.268 0 2.219 1.08 2.219 2.325v43.426" stroke="#498CD8" stroke-width="2"/><path d="M70.386 46.753V7.645h-53.94v39.108" stroke="#498CD8" stroke-width="1.5"/><path d="M1 47.418v4.235s2.93 2.325 5.07 2.325h74.691c2.139 0 5.07-2.325 5.07-2.325v-4.235H1z" stroke="#498CD8" stroke-width="2"/><path d="M26.82 13.872h7.129m9.188 0h14.495m-20.832 0h3.328M29.195 27.323h5.782m10.851 0H57.63m-19.88 0h4.99m16.158 13.368h6.179m-27.327 0h17.663m5.31-13.368h4.356m-32.794 6.644h2.693m2.772 0h17.98m4.91-20.095h3.327M26.82 20.598h28.594m-34.535-6.726h2.93m-2.93 6.726h2.93m-2.93 6.725h2.93m-2.93 6.644h2.93m-2.93 6.724h2.93" stroke="#498CD8" stroke-width="1.5"/></svg>