<svg width="54" height="57" viewBox="0 0 54 57" fill="none" xmlns="http://www.w3.org/2000/svg"><path d="M26.838 55.764V45.758s.567-1.244 1.247-1.244c.397 0 .737.178.963.474.794 1.066 1.984 1.717 3.343 1.717 2.324 0 4.25-1.954 4.25-4.382 0-2.427-1.87-4.381-4.25-4.381-1.36 0-2.55.651-3.343 1.717a1.191 1.191 0 01-.963.474c-.68 0-1.247-1.244-1.247-1.244V28.823H17.15c-.623-.06-1.133-.592-1.133-1.303 0-.414.17-.77.453-1.006a4.447 4.447 0 001.643-3.494c0-2.427-1.87-4.381-4.25-4.381-2.323 0-4.25 1.954-4.25 4.381 0 1.421.624 2.665 1.644 3.494.283.237.453.592.453 1.006 0 .652-.51 1.244-1.133 1.303H1v26.823h25.838v.118z" stroke="#498CD8" stroke-width="2"/><path d="M32.391 10.823c-1.36 0-2.55.651-3.343 1.717a1.191 1.191 0 01-.963.474c-.623 0-1.19-.533-1.247-1.184V1.764H1v27c1.813 0 3.626.06 5.44.06h2.663c.68 0 1.7.118 2.266-.297a.954.954 0 00.454-.829 1.376 1.376 0 00-.454-1.184 4.447 4.447 0 01-1.643-3.493c0-2.428 1.87-4.441 4.25-4.441 2.323 0 4.25 1.954 4.25 4.44a4.447 4.447 0 01-1.644 3.494c-.453.355-.623 1.125-.283 1.658.453.83 1.7.533 2.493.533h8.216V18.58c.057-.651.567-1.184 1.247-1.184.397 0 .737.177.963.473.794 1.066 1.983 1.717 3.343 1.717 2.324 0 4.25-1.954 4.25-4.44-.17-2.31-2.096-4.323-4.42-4.323zm10.485 18c-.51.178-.907.652-.907 1.244 0 .414.17.77.453 1.006a4.417 4.417 0 011.643 3.435c0 2.427-1.926 4.381-4.25 4.381-2.322 0-4.249-1.954-4.249-4.381 0-1.422.623-2.665 1.643-3.435.283-.237.453-.592.453-1.006 0-.592-.396-1.125-.906-1.244H26.84V38.83c.056.651.567 1.184 1.246 1.184.397 0 .737-.177.964-.473.793-1.066 1.983-1.658 3.343-1.658 2.323 0 4.25 2.013 4.25 4.381 0 2.369-1.927 4.382-4.25 4.382-1.36 0-2.55-.71-3.343-1.717a1.19 1.19 0 00-.964-.474c-.623 0-1.19.533-1.246 1.184v10.007h25.838l.057-26.764-9.86-.059z" stroke="#498CD8" stroke-width="2"/><path d="M27.867 2h25v25" stroke="#498CD8" stroke-width="2" stroke-dasharray="3 3"/><path fill="#498CD8" d="M50.867 1h3v3h-3zm0 24h3v3h-3zm-24-24h3v3h-3z"/></svg>