<svg width="57" height="60" viewBox="0 0 57 60" fill="none" xmlns="http://www.w3.org/2000/svg"><path d="M13.222 58.323C6.49 58.323 1 52.633 1 45.581c0-7.053 5.489-12.802 12.222-12.802 6.734 0 12.223 5.75 12.223 12.802-.057 7.053-5.489 12.742-12.223 12.742z" stroke="#498CD8" stroke-width="1.8"/><path d="M17.663 43.123c0 2.586-1.98 4.655-4.454 4.655-2.475 0-4.455-2.07-4.455-4.655 0-2.586 1.98-4.655 4.455-4.655 2.474 0 4.454 2.069 4.454 4.655zm3.33 12.18v-2.427c0-2.587-1.98-4.655-4.454-4.655H9.892c-2.475 0-4.454 2.069-4.454 4.655v2.427m22.788-27.864c-6.733 0-12.222-5.69-12.222-12.743S21.493 1.895 28.226 1.895c6.734 0 12.223 5.748 12.223 12.801-.057 7.053-5.49 12.743-12.223 12.743z" stroke="#498CD8" stroke-width="1.8"/><path d="M32.67 12.239c0 2.586-1.979 4.655-4.454 4.655-2.475 0-4.454-2.07-4.454-4.655 0-2.586 1.98-4.655 4.454-4.655 2.475 0 4.455 2.069 4.455 4.655zm3.331 12.181v-2.428c0-2.586-1.98-4.655-4.454-4.655H24.9c-2.475 0-4.455 2.069-4.455 4.655v2.428m22.777 33.788C36.49 58.208 31 52.518 31 45.466c0-7.053 5.489-12.802 12.222-12.802 6.734 0 12.223 5.749 12.223 12.802-.057 7.053-5.489 12.742-12.223 12.742z" stroke="#498CD8" stroke-width="1.8"/><path d="M47.675 43.007c0 2.587-1.98 4.655-4.455 4.655s-4.454-2.069-4.454-4.655c0-2.586 1.98-4.654 4.454-4.654 2.475 0 4.455 2.068 4.455 4.654zm3.33 12.181V52.76c0-2.586-1.98-4.654-4.455-4.654h-6.646c-2.475 0-4.455 2.068-4.455 4.654v2.428M28.223 27.44v6.095m-5.84 3.483l5.833-3.484m.007-.001l5.833 3.484" stroke="#498CD8" stroke-width="1.8"/></svg>