<svg width="60" height="57" viewBox="0 0 60 57" fill="none" xmlns="http://www.w3.org/2000/svg"><path d="M19.703 24.168h2.413a8.917 8.917 0 012.126-4.083l7.183-8.166 1.896-2.822V1.172h1.896c2.7 0 4.941 2.281 4.941 5.163v5.825l-1.78 5.463c.861 2.522.976 5.524.172 8.466-1.84 6.785-7.872 10.928-13.446 9.247M45.1 50.166H30.563c-2.873 0-5.344-1.44-6.953-3.662h-3.907m39.145-25.219c0 2.282-1.781 4.143-3.965 4.143H43.851c-2.183 0-3.964-1.861-3.964-4.143 0-2.281 1.78-4.142 3.964-4.142h11.032c2.184.06 3.965 1.92 3.965 4.142z" stroke="#498CD8" stroke-width="2"/><path d="M56.727 29.57c0 2.282-1.781 4.144-3.965 4.144H41.73c-2.183 0-3.964-1.861-3.964-4.143s1.78-4.143 3.964-4.143h11.032c2.184 0 3.965 1.861 3.965 4.143z" stroke="#498CD8" stroke-width="2"/><path d="M55.684 37.796c0 2.282-1.781 4.144-3.965 4.144H40.687c-2.183 0-3.964-1.862-3.964-4.144 0-2.281 1.78-4.143 3.964-4.143H51.72c2.184 0 3.965 1.862 3.965 4.143z" stroke="#498CD8" stroke-width="2"/><path d="M52.524 46.023c0 2.281-1.782 4.142-3.965 4.142h-7.872c-2.183 0-3.964-1.86-3.964-4.142s1.78-4.143 3.964-4.143h7.872c2.184 0 3.965 1.861 3.965 4.143zM0 23.088h16.548V55.51H7.24v-27.2" stroke="#498CD8" stroke-width="2"/></svg>